<svg id="_x33_0" enable-background="new 0 0 64 64" height="512" viewBox="0 0 64 64" width="512" xmlns="http://www.w3.org/2000/svg"><g><path d="m21.789 26.658.105-.211-1.789-.895-.105.212c-.381.762-1.147 1.236-2 1.236s-1.619-.474-2-1.236l-.105-.211-1.789.895.105.211c.722 1.444 2.174 2.341 3.789 2.341s3.067-.897 3.789-2.342z"/><path d="m48 25.764c-.381.762-1.147 1.236-2 1.236s-1.619-.474-2-1.236l-.105-.211-1.789.895.105.211c.722 1.444 2.174 2.341 3.789 2.341s3.067-.897 3.789-2.342l.105-.211-1.789-.895z"/><path d="m57.285 39.078-2.285-.893c-.116-.036-.231-.092-.347-.137-.289-.809-.747-1.556-1.36-2.168l-1.096-1.096-.457.229c-.108-.319-.187-.647-.229-.985l-.312-2.5c1.763-1.094 3.155-2.733 3.939-4.702l1.859-.311c2.319-.386 4.003-2.373 4.003-4.725 0-1.393-.607-2.638-1.56-3.514 1.019-2.363 1.56-4.941 1.56-7.513 0-4.831-3.932-8.763-8.764-8.763-1.421 0-2.844.295-4.149.857-1.879-1.215-4.059-1.857-6.398-1.857-3.269 0-6.377 1.409-8.527 3.866l-1.339 1.531c-1.516-2.623-4.345-4.397-7.587-4.397-1.421 0-2.844.295-4.149.857-1.879-1.215-4.059-1.857-6.398-1.857-3.269 0-6.377 1.409-8.527 3.866l-2.583 2.953c-1.018 1.164-1.579 2.658-1.579 4.204 0 .768.137 1.522.406 2.242l2.061 5.495c-.291.619-.467 1.302-.467 2.03 0 2.352 1.684 4.339 4.002 4.724l1.861.311c.784 1.969 2.176 3.608 3.939 4.702l-.312 2.5c-.042.338-.121.667-.229.985l-.457-.229-1.096 1.096c-.617.617-1.077 1.37-1.366 2.186-.127.049-.262.097-.415.145l-2.212.868c-3.472 1.36-5.715 4.65-5.715 8.378v15.544h62v-15.544c0-3.728-2.243-7.018-5.715-8.378zm-2.301 1.245 1.571.617c2.7 1.059 4.445 3.616 4.445 6.517v5.543h-4v-3.764l.895-1.789-1.789-.895-1.106 2.212v12.236h-20v-13.544c0-1.927-.608-3.73-1.667-5.216.621-.554 1.338-.997 2.112-1.3l1.571-.619c.08 1.421.682 2.792 1.691 3.801l1.096 1.096 4.97-2.486c.376.169.789.268 1.227.268s.851-.099 1.227-.269l4.97 2.486 1.096-1.096c1.009-1.008 1.61-2.378 1.691-3.798zm-25.984 14.677h4v6h-4zm-2.347-16.953c-.289-.809-.747-1.556-1.36-2.168l-1.096-1.096-.457.229c-.108-.319-.187-.647-.229-.985l-.312-2.5c1.763-1.094 3.155-2.733 3.939-4.702l1.859-.311c1.24-.206 2.286-.878 3.003-1.81.716.932 1.763 1.604 3.002 1.81l1.861.311c.784 1.969 2.176 3.608 3.939 4.702l-.312 2.5c-.042.338-.121.667-.229.985l-.457-.229-1.096 1.096c-.617.617-1.077 1.37-1.366 2.186-.127.049-.262.097-.415.145l-2.211.867c-.999.391-1.925.965-2.726 1.682-.783-.697-1.682-1.281-2.705-1.681l-2.285-.893c-.116-.036-.231-.092-.347-.138zm-9.653 1.953c0-.552.448-1 1-1s1 .448 1 1-.448 1-1 1-1-.448-1-1zm3.723-1.243 3.08-1.54.076.076c.713.713 1.121 1.699 1.121 2.707s-.408 1.994-1.121 2.707l-.076.076-3.08-1.54c.174-.38.277-.799.277-1.243s-.103-.863-.277-1.243zm-1.622-19.757h-2.202c-.23-1.126-.853-2.099-1.703-2.812 1.376-.761 2.465-2.01 2.987-3.576l.525-1.574c2.643.255 4.98 1.813 6.279 4.062-.319-.064-.649-.1-.987-.1-2.414 0-4.434 1.721-4.899 4zm-10.101 1c0-1.654 1.346-3 3-3s3 1.346 3 3-1.346 3-3 3-3-1.346-3-3zm22 1.79c0 1.369-.98 2.526-2.332 2.751l-.96.16c.029-.187.064-.371.083-.562l.105-1.044c.68-.854 1.104-1.921 1.104-3.095 0-.308-.037-.607-.091-.9 1.199.312 2.091 1.395 2.091 2.69zm-7-4.79c1.654 0 3 1.346 3 3s-1.346 3-3 3-3-1.346-3-3 1.346-3 3-3zm22.184-4.389.525-1.574c2.643.255 4.98 1.813 6.279 4.062-.32-.063-.65-.099-.988-.099-2.414 0-4.434 1.721-4.899 4h-2.202c-.23-1.126-.853-2.099-1.703-2.812 1.376-.762 2.465-2.01 2.988-3.577zm8.816 7.389c0 1.654-1.346 3-3 3s-3-1.346-3-3 1.346-3 3-3 3 1.346 3 3zm-15-3c1.654 0 3 1.346 3 3s-1.346 3-3 3-3-1.346-3-3 1.346-3 3-3zm-3.896 6.095.105 1.044c.019.19.054.375.083.562l-.961-.16c-1.351-.225-2.331-1.382-2.331-2.751 0-1.295.892-2.378 2.091-2.69-.054.293-.091.592-.091.9 0 1.174.424 2.241 1.104 3.095zm10.896 16.905c0 .552-.448 1-1 1s-1-.448-1-1 .448-1 1-1 1 .448 1 1zm-3.723 1.243-3.08 1.54-.076-.076c-.713-.713-1.121-1.699-1.121-2.707s.408-1.994 1.121-2.707l.076-.076 3.08 1.54c-.174.38-.277.799-.277 1.243s.103.863.277 1.243zm9.723-1.243c0 1.008-.408 1.994-1.121 2.707l-.076.076-3.08-1.54c.174-.38.277-.799.277-1.243s-.103-.863-.277-1.243l3.08-1.54.076.076c.713.713 1.121 1.699 1.121 2.707zm-3.474-5.726c.07.565.216 1.11.417 1.636l-2.717 1.359c-.375-.17-.788-.269-1.226-.269s-.851.099-1.227.269l-2.717-1.359c.202-.525.347-1.071.417-1.636l.23-1.846c1.034.366 2.141.572 3.297.572s2.263-.206 3.296-.571zm-3.526-3.274c-3.791 0-6.975-2.666-7.691-6.315.531.193 1.095.315 1.691.315 2.414 0 4.434-1.721 4.899-4h2.202c.465 2.279 2.484 4 4.899 4 .596 0 1.16-.122 1.691-.315-.716 3.649-3.9 6.315-7.691 6.315zm10.668-6.459-.96.16c.029-.187.064-.371.083-.562l.105-1.044c.68-.854 1.104-1.921 1.104-3.095 0-.308-.037-.607-.091-.9 1.199.312 2.091 1.395 2.091 2.69 0 1.369-.98 2.526-2.332 2.751zm-22-18.358c1.77-2.023 4.329-3.183 7.11-3.183 1.91 0 3.755.557 5.335 1.61l.815.543.519-.259c1.171-.584 2.482-.894 3.789-.894 3.73 0 6.764 3.034 6.764 6.764 0 2.22-.471 4.438-1.322 6.491-.465-.152-.953-.255-1.468-.255h-.236c-.061-.08-.126-.155-.191-.232-.97-4.043-4.376-7.077-8.433-7.659l.598-1.793-1.896-.633-1.765 5.295c-.603 1.808-2.288 3.022-4.192 3.022-2.258 0-4.095-1.837-4.095-4.095 0-1.051.854-1.905 1.905-1.905.821 0 1.548.523 1.809 1.304l.338 1.013 1.896-.633-.338-1.013c-.532-1.598-2.021-2.671-3.705-2.671-2.153 0-3.905 1.752-3.905 3.905 0 2.195 1.17 4.117 2.916 5.19-.334.264-.633.565-.89.905h-.236c-1.549 0-2.914.751-3.79 1.894-.17-.222-.354-.429-.56-.618 1.019-2.363 1.56-4.941 1.56-7.513 0-.8-.117-1.572-.319-2.309zm-31.668 5.84c0-1.063.385-2.088 1.085-2.888l2.583-2.953c1.77-2.022 4.329-3.182 7.11-3.182 1.91 0 3.755.557 5.335 1.61l.815.543.519-.259c1.171-.584 2.482-.894 3.789-.894 3.73 0 6.764 3.034 6.764 6.764 0 2.22-.471 4.438-1.322 6.491-.465-.152-.953-.255-1.468-.255h-.236c-.061-.08-.126-.155-.191-.232-.97-4.043-4.376-7.077-8.433-7.659l.598-1.793-1.896-.633-1.765 5.295c-.603 1.808-2.288 3.022-4.192 3.022-2.258 0-4.095-1.837-4.095-4.095 0-1.051.854-1.905 1.905-1.905.821 0 1.548.523 1.809 1.304l.338 1.013 1.896-.633-.338-1.013c-.532-1.598-2.021-2.671-3.705-2.671-2.153 0-3.905 1.752-3.905 3.905 0 2.195 1.17 4.117 2.916 5.19-.334.264-.633.565-.89.905h-.236c-1.075 0-2.058.369-2.858.969l-1.653-4.405c-.185-.495-.279-1.013-.279-1.541zm4.331 12.518c-1.351-.225-2.331-1.382-2.331-2.751 0-1.295.892-2.378 2.091-2.69-.054.293-.091.592-.091.9 0 1.174.424 2.241 1.104 3.095l.105 1.044c.019.19.054.375.083.562zm2.978.144c.531.193 1.095.315 1.691.315 2.414 0 4.434-1.721 4.899-4h2.202c.465 2.279 2.484 4 4.899 4 .596 0 1.16-.122 1.691-.315-.716 3.649-3.9 6.315-7.691 6.315s-6.975-2.666-7.691-6.315zm4.165 9.589.23-1.846c1.033.366 2.14.572 3.296.572s2.263-.206 3.296-.571l.23 1.846c.07.565.216 1.11.417 1.636l-2.717 1.359c-.375-.171-.788-.27-1.226-.27s-.851.099-1.227.269l-2.717-1.359c.202-.525.347-1.07.418-1.636zm-2.353 3.019.076-.076 3.08 1.54c-.174.38-.277.799-.277 1.243s.103.863.277 1.243l-3.08 1.54-.076-.076c-.713-.713-1.121-1.699-1.121-2.707s.408-1.994 1.121-2.707zm-4.676 3.646 1.571-.619c.08 1.421.682 2.792 1.691 3.801l1.096 1.096 4.97-2.486c.376.17.789.269 1.227.269s.851-.099 1.227-.269l4.97 2.486 1.096-1.096c1.009-1.009 1.61-2.378 1.691-3.798l1.571.617c2.7 1.059 4.445 3.616 4.445 6.517v5.543h-4v-3.764l.895-1.789-1.789-.895-1.106 2.212v12.236h-18v-12.236l-1.105-2.211-1.789.895.894 1.788v3.764h-4v-5.544c0-2.9 1.745-5.458 4.445-6.517zm-4.445 14.061h4v6h-4zm54 6v-6h4v6z"/></g></svg>