<?xml version="1.0" encoding="iso-8859-1"?>
<!-- Generator: Adobe Illustrator 19.0.0, SVG Export Plug-In . SVG Version: 6.00 Build 0)  -->
<svg version="1.1" id="Capa_1" xmlns="http://www.w3.org/2000/svg" xmlns:xlink="http://www.w3.org/1999/xlink" x="0px" y="0px"
	 viewBox="0 0 512 512" style="enable-background:new 0 0 512 512;" xml:space="preserve">
<g>
	<g>
		<g>
			<path d="M400.995,460.444c-0.03-0.949-0.219-1.886-0.559-2.772c-0.032-0.08-0.041-0.168-0.074-0.247l-0.028-0.091L368.45,385.6
				c-2.741-6.161-8.852-10.132-15.596-10.133h-2.988V187.733c0.084-33.563-17.945-64.561-47.159-81.084L307.1,78.1
				c0.38-2.461-0.335-4.965-1.956-6.856c-1.621-1.89-3.987-2.978-6.477-2.978H281.6V51.2h76.8c2.263,0.001,4.434-0.898,6.035-2.499
				c1.6-1.6,2.499-3.771,2.499-6.035V8.533c0.001-2.263-0.898-4.434-2.499-6.035c-1.6-1.6-3.771-2.499-6.035-2.499H153.6
				c-2.263-0.001-4.434,0.898-6.035,2.499c-1.6,1.6-2.499,3.771-2.499,6.035v34.133c-0.001,2.263,0.898,4.434,2.499,6.035
				c1.6,1.6,3.771,2.499,6.035,2.499h76.8v17.067h-17.067c-2.49,0-4.856,1.088-6.477,2.978c-1.621,1.89-2.336,4.394-1.956,6.856
				l4.392,28.549c-29.214,16.523-47.243,47.521-47.159,81.084v85.333h-2.987c-6.744,0.002-12.854,3.972-15.596,10.133h-0.004
				l-31.879,71.733l-0.028,0.091c-0.034,0.079-0.043,0.167-0.075,0.247c-0.341,0.886-0.53,1.823-0.559,2.772
				c-0.005,0.125-0.072,0.23-0.072,0.356v34.133c0.011,9.421,7.645,17.056,17.067,17.067h85.333
				c9.421-0.011,17.056-7.646,17.067-17.067V358.4c0-0.126-0.067-0.23-0.072-0.356c-0.03-0.949-0.219-1.886-0.559-2.772
				c-0.032-0.08-0.041-0.168-0.075-0.247l-0.028-0.091L197.783,283.2c-2.741-6.161-8.852-10.132-15.596-10.133H179.2v-31.533
				c17.513,25.105,46.19,40.066,76.8,40.066c30.61,0,59.287-14.961,76.8-40.066v133.933h-2.987
				c-6.744,0.002-12.854,3.972-15.596,10.133h-0.004l-31.879,71.733l-0.028,0.091c-0.034,0.079-0.043,0.167-0.075,0.247
				c-0.341,0.886-0.53,1.823-0.559,2.772c-0.005,0.125-0.072,0.23-0.072,0.356v34.133c0.011,9.421,7.646,17.056,17.067,17.067H384
				c9.421-0.011,17.056-7.645,17.067-17.067V460.8C401.067,460.674,401,460.57,400.995,460.444z M213.346,392.533H128v-25.6h85.338
				L213.346,392.533z M182.188,290.133l26.55,59.733h-76.142l26.546-59.733H182.188z M162.133,34.133V17.067h187.733v17.067H162.133
				z M264.533,51.2v17.067h-17.067V51.2H264.533z M238.933,85.333h49.787l-11.663,75.8C275.459,171.527,266.516,179.2,256,179.2
				c-10.516,0-19.459-7.673-21.058-18.067l-11.663-75.8H238.933z M256,264.533c-42.415,0-76.8-34.385-76.8-76.8
				c-0.095-25.109,12.215-48.645,32.892-62.891l5.983,38.891c2.749,18.111,17.945,31.736,36.247,32.5s34.581-11.547,38.83-29.366
				c3.605,6.364,5.505,13.551,5.514,20.866c0,4.713,3.82,8.533,8.533,8.533s8.533-3.82,8.533-8.533
				c0.007-16.455-6.808-32.176-18.82-43.421l2.995-19.469c20.677,14.245,32.987,37.782,32.892,62.891
				C332.8,230.149,298.415,264.533,256,264.533z M329.808,392.533h23.046l26.55,59.733h-76.142L329.808,392.533z M298.667,494.933
				v-25.6h85.337l0.009,25.6H298.667z"/>
			<path d="M256,230.4c-23.553-0.028-42.639-19.114-42.667-42.667c0-4.713-3.82-8.533-8.533-8.533s-8.533,3.82-8.533,8.533
				c0.038,32.974,26.759,59.695,59.733,59.733c4.713,0,8.533-3.82,8.533-8.533S260.713,230.4,256,230.4z"/>
		</g>
	</g>
</g>
<g>
</g>
<g>
</g>
<g>
</g>
<g>
</g>
<g>
</g>
<g>
</g>
<g>
</g>
<g>
</g>
<g>
</g>
<g>
</g>
<g>
</g>
<g>
</g>
<g>
</g>
<g>
</g>
<g>
</g>
</svg>
